<?xml version="1.0" standalone="no"?>
<!DOCTYPE svg PUBLIC "-//W3C//DTD SVG 20010904//EN"
 "http://www.w3.org/TR/2001/REC-SVG-20010904/DTD/svg10.dtd">
<svg version="1.0" xmlns="http://www.w3.org/2000/svg"
 width="1024.000000pt" height="694.000000pt" viewBox="0 0 1024.000000 694.000000"
 preserveAspectRatio="xMidYMid meet">

<g transform="translate(0.000000,694.000000) scale(0.100000,-0.100000)"
fill="#000000" stroke="none">
<path d="M0 6710 l0 -230 5120 0 5120 0 0 230 0 230 -5120 0 -5120 0 0 -230z
m749 96 c15 -8 32 -26 39 -40 7 -17 20 -26 33 -26 51 0 77 -63 42 -102 -23
-26 -200 -27 -210 -1 -6 15 -7 15 -14 -3 -7 -17 -8 -17 -8 -1 -1 9 -5 17 -11
17 -5 0 -11 -8 -11 -17 -1 -17 -2 -17 -6 0 -2 9 -9 17 -14 17 -5 0 -10 -8 -10
-17 -1 -17 -2 -17 -6 0 -2 9 -9 17 -14 17 -5 0 -10 -8 -10 -17 -1 -17 -2 -17
-6 0 -2 9 -9 17 -14 17 -5 0 -10 -8 -10 -17 -1 -17 -2 -17 -6 0 -2 9 -9 17
-14 17 -5 0 -9 -8 -10 -17 0 -13 -3 -11 -10 7 -7 18 -12 21 -18 11 -12 -18
-24 15 -15 42 5 16 8 17 15 6 7 -11 11 -8 16 10 l6 25 10 -25 c9 -23 9 -23 17
-4 l9 20 0 -20 c1 -17 3 -17 11 -5 5 8 10 26 11 40 1 23 2 23 9 -5 7 -32 15
-23 23 25 4 20 5 19 6 -7 1 -40 20 -44 22 -5 l2 27 4 -28 c6 -38 23 -24 24 21
l2 37 7 -40 7 -40 2 36 c0 19 6 40 13 47 16 16 53 15 87 -2z"/>
<path d="M6115 6034 c-123 -18 -248 -58 -391 -126 -27 -13 -155 -116 -212
-171 -92 -89 -197 -283 -234 -434 -31 -125 -30 -313 1 -438 69 -274 238 -490
484 -620 113 -60 213 -92 338 -106 295 -34 586 73 794 292 87 92 138 169 182
273 57 134 77 232 77 381 0 173 -24 268 -106 435 -57 115 -69 132 -159 222
-91 90 -204 178 -229 178 -6 0 -38 14 -72 31 -116 58 -355 100 -473 83z m35
-39 c0 -18 -23 -32 -28 -17 -2 8 -8 8 -22 0 -21 -14 -35 -6 -27 15 7 18 77 20
77 2z m50 0 c0 -8 -9 -15 -20 -15 -11 0 -20 7 -20 15 0 8 9 15 20 15 11 0 20
-7 20 -15z m50 0 c0 -8 -9 -15 -20 -15 -11 0 -20 7 -20 15 0 8 9 15 20 15 11
0 20 -7 20 -15z m48 -2 c-5 -26 -38 -29 -38 -4 0 15 6 21 21 21 14 0 19 -5 17
-17z m42 -9 c0 -8 -7 -14 -15 -14 -15 0 -21 21 -9 33 10 9 24 -2 24 -19z
m-280 -4 c0 -13 -7 -20 -20 -20 -13 0 -20 7 -20 20 0 13 7 20 20 20 13 0 20
-7 20 -20z m328 -4 c3 -13 -1 -17 -14 -14 -11 2 -20 11 -22 22 -3 13 1 17 14
14 11 -2 20 -11 22 -22z m-378 -6 c0 -13 -7 -20 -20 -20 -19 0 -27 20 -13 33
13 14 33 6 33 -13z m425 0 c0 -8 -8 -16 -17 -18 -13 -2 -18 3 -18 18 0 15 5
20 18 18 9 -2 17 -10 17 -18z m-475 -16 c0 -9 -7 -14 -17 -12 -25 5 -28 28 -4
28 12 0 21 -6 21 -16z m520 1 c0 -8 -7 -15 -15 -15 -8 0 -15 7 -15 15 0 8 7
15 15 15 8 0 15 -7 15 -15z m-570 -15 c0 -11 -4 -20 -10 -20 -5 0 -10 9 -10
20 0 11 5 20 10 20 6 0 10 -9 10 -20z m620 6 c0 -20 -19 -31 -32 -18 -6 6 -7
15 -4 21 10 16 36 13 36 -3z m-657 -21 c1 -5 -6 -11 -15 -13 -11 -2 -18 3 -18
13 0 17 30 18 33 0z m697 -1 c0 -17 -22 -14 -28 4 -2 7 3 12 12 12 9 0 16 -7
16 -16z m-740 -20 c0 -9 -7 -14 -17 -12 -25 5 -28 28 -4 28 12 0 21 -6 21 -16z
m780 1 c0 -8 -7 -15 -15 -15 -8 0 -15 7 -15 15 0 8 7 15 15 15 8 0 15 -7 15
-15z m-822 -18 c2 -12 -3 -17 -17 -17 -12 0 -21 6 -21 13 0 31 32 34 38 4z
m870 0 c2 -12 -3 -17 -17 -17 -12 0 -21 6 -21 13 0 31 32 34 38 4z m-918 -27
c0 -11 -7 -20 -15 -20 -8 0 -15 9 -15 20 0 11 7 20 15 20 8 0 15 -9 15 -20z
m960 0 c0 -11 -7 -20 -15 -20 -8 0 -15 9 -15 20 0 11 7 20 15 20 8 0 15 -9 15
-20z m-1000 -25 c0 -8 -6 -15 -14 -15 -8 0 -16 -7 -20 -15 -3 -8 -12 -15 -21
-15 -8 0 -15 -6 -15 -13 0 -16 -55 -59 -64 -50 -15 15 -5 35 15 30 15 -4 19
-2 15 10 -4 9 1 17 14 20 11 3 20 12 20 19 0 8 9 14 20 14 11 0 20 7 20 15 0
8 7 15 15 15 8 0 15 -7 15 -15z m1040 0 c0 -8 -7 -15 -15 -15 -8 0 -15 7 -15
15 0 8 7 15 15 15 8 0 15 -7 15 -15z m40 -30 c0 -8 7 -15 15 -15 8 0 15 -7 15
-15 0 -8 -5 -15 -10 -15 -6 0 -13 7 -16 15 -4 8 -12 15 -20 15 -8 0 -14 7 -14
15 0 8 7 15 15 15 8 0 15 -7 15 -15z m70 -58 c0 -8 -3 -17 -7 -20 -9 -9 -34
13 -27 24 8 14 34 11 34 -4z m-1292 -39 c-3 -7 -11 -13 -18 -13 -7 0 -15 6
-17 13 -3 7 4 12 17 12 13 0 20 -5 18 -12z m1332 2 c0 -5 -9 -10 -20 -10 -11
0 -20 5 -20 10 0 6 9 10 20 10 11 0 20 -4 20 -10z m-1362 -38 c2 -7 -6 -12
-17 -12 -21 0 -27 11 -14 24 9 9 26 2 31 -12z m1390 0 c2 -7 -6 -12 -17 -12
-21 0 -27 11 -14 24 9 9 26 2 31 -12z m-1423 -31 c7 -12 -12 -24 -25 -16 -11
7 -4 25 10 25 5 0 11 -4 15 -9z m1455 -5 c0 -7 7 -19 15 -26 10 -8 12 -17 6
-23 -12 -12 -34 1 -27 18 2 7 -4 15 -16 18 -11 3 -17 10 -13 16 9 16 35 13 35
-3z m-1480 -41 c0 -8 -7 -15 -15 -15 -8 0 -15 7 -15 15 0 8 7 15 15 15 8 0 15
-7 15 -15z m-30 -40 c0 -8 -7 -15 -15 -15 -8 0 -15 7 -15 15 0 8 7 15 15 15 8
0 15 -7 15 -15z m1560 0 c0 -8 -7 -15 -15 -15 -8 0 -15 7 -15 15 0 8 7 15 15
15 8 0 15 -7 15 -15z m-1580 -40 c0 -8 -7 -15 -15 -15 -8 0 -15 7 -15 15 0 8
7 15 15 15 8 0 15 -7 15 -15z m1600 0 c0 -8 -4 -15 -9 -15 -13 0 -22 16 -14
24 11 11 23 6 23 -9z m17 -52 c-3 -3 -11 -2 -17 2 -9 6 -9 10 1 16 14 8 27 -7
16 -18z m-1637 7 c0 -5 -7 -10 -15 -10 -8 0 -15 5 -15 10 0 6 7 10 15 10 8 0
15 -4 15 -10z m-22 -42 c-6 -18 -28 -21 -28 -4 0 9 7 16 16 16 9 0 14 -5 12
-12z m1682 -4 c0 -17 -22 -14 -28 4 -2 7 3 12 12 12 9 0 16 -7 16 -16z m-1700
-39 c0 -8 -7 -15 -15 -15 -16 0 -20 12 -8 23 11 12 23 8 23 -8z m1720 0 c0 -8
-7 -15 -15 -15 -8 0 -15 7 -15 15 0 8 7 15 15 15 8 0 15 -7 15 -15z m-1732
-47 c-6 -18 -28 -21 -28 -4 0 9 7 16 16 16 9 0 14 -5 12 -12z m1742 -4 c0 -17
-22 -14 -28 4 -2 7 3 12 12 12 9 0 16 -7 16 -16z m17 -50 c-3 -4 -14 -3 -24 0
-15 6 -15 8 -3 16 16 10 39 -4 27 -16z m-1777 6 c0 -5 -7 -10 -15 -10 -8 0
-15 5 -15 10 0 6 7 10 15 10 8 0 15 -4 15 -10z m590 -59 l0 -48 48 5 c45 4 50
2 75 -28 25 -30 27 -38 27 -131 l0 -99 -30 0 -30 0 0 85 c0 71 -3 88 -20 105
-15 15 -25 17 -42 11 -21 -8 -23 -15 -26 -105 l-3 -96 -29 0 -30 0 0 165 c0
146 2 165 18 174 34 20 42 13 42 -38z m-174 8 c37 -34 54 -79 54 -146 -1 -131
-107 -209 -210 -154 -88 47 -109 211 -37 290 31 33 55 41 115 38 38 -3 59 -10
78 -28z m1132 -34 c1 -33 -1 -87 -5 -120 -7 -51 -11 -60 -28 -60 -15 0 -21 9
-27 40 -9 53 -10 190 -1 199 4 4 19 6 33 4 23 -3 25 -7 28 -63z m237 46 c7
-12 -12 -24 -25 -16 -11 7 -4 25 10 25 5 0 11 -4 15 -9z m-1793 -13 c-9 -9
-15 -9 -24 0 -9 9 -7 12 12 12 19 0 21 -3 12 -12z m-4 -46 c2 -7 -3 -12 -12
-12 -9 0 -16 7 -16 16 0 17 22 14 28 -4z m1802 2 c0 -17 -22 -14 -28 4 -2 7 3
12 12 12 9 0 16 -7 16 -16z m-689 -17 c30 -23 39 -56 39 -151 l0 -96 -30 0
-30 0 0 88 c0 48 -4 92 -8 98 -11 17 -35 22 -59 13 -22 -8 -23 -14 -23 -104
l0 -95 -30 0 -30 0 0 128 0 129 78 1 c45 0 84 -4 93 -11z m267 -3 c33 -23 52
-67 52 -121 0 -138 -153 -183 -215 -63 -29 57 -10 152 39 185 27 20 96 19 124
-1z m-1388 -29 c0 -8 -4 -15 -9 -15 -13 0 -22 16 -14 24 11 11 23 6 23 -9z
m1818 4 c-2 -6 -8 -10 -13 -10 -5 0 -11 4 -13 10 -2 6 4 11 13 11 9 0 15 -5
13 -11z m2 -50 c0 -5 -7 -9 -15 -9 -15 0 -20 12 -9 23 8 8 24 -1 24 -14z
m-1822 0 c-2 -6 -8 -10 -13 -10 -5 0 -11 4 -13 10 -2 6 4 11 13 11 9 0 15 -5
13 -11z m1822 -50 c0 -5 -7 -9 -15 -9 -15 0 -20 12 -9 23 8 8 24 -1 24 -14z
m-1820 1 c0 -5 -7 -10 -15 -10 -8 0 -15 5 -15 10 0 6 7 10 15 10 8 0 15 -4 15
-10z m1 -53 c-13 -13 -26 -3 -16 12 3 6 11 8 17 5 6 -4 6 -10 -1 -17z m1811 8
c0 -5 -5 -11 -11 -13 -6 -2 -11 4 -11 13 0 9 5 15 11 13 6 -2 11 -8 11 -13z
m-241 -26 c9 -18 7 -25 -9 -41 -28 -28 -62 -16 -62 21 0 15 3 31 7 34 14 15
53 6 64 -14z m-1561 -24 c0 -8 -4 -15 -9 -15 -13 0 -22 16 -14 24 11 11 23 6
23 -9z m1798 4 c-2 -6 -8 -10 -13 -10 -5 0 -11 4 -13 10 -2 6 4 11 13 11 9 0
15 -5 13 -11z m-1790 -50 c-2 -6 -8 -10 -13 -10 -5 0 -11 4 -13 10 -2 6 4 11
13 11 9 0 15 -5 13 -11z m1782 1 c0 -5 -7 -10 -15 -10 -8 0 -15 5 -15 10 0 6
7 10 15 10 8 0 15 -4 15 -10z m-10 -45 c0 -8 -4 -15 -9 -15 -13 0 -22 16 -14
24 11 11 23 6 23 -9z m-1760 -5 c0 -5 -7 -10 -15 -10 -8 0 -15 5 -15 10 0 6 7
10 15 10 8 0 15 -4 15 -10z m10 -45 c0 -8 -4 -15 -9 -15 -13 0 -22 16 -14 24
11 11 23 6 23 -9z m1740 5 c0 -5 -7 -10 -15 -10 -8 0 -15 5 -15 10 0 6 7 10
15 10 8 0 15 -4 15 -10z m-1720 -50 c0 -5 -7 -10 -15 -10 -8 0 -15 5 -15 10 0
6 7 10 15 10 8 0 15 -4 15 -10z m1700 0 c0 -5 -4 -10 -10 -10 -5 0 -10 5 -10
10 0 6 5 10 10 10 6 0 10 -4 10 -10z m-1688 -45 c0 -5 -5 -11 -11 -13 -6 -2
-11 4 -11 13 0 9 5 15 11 13 6 -2 11 -8 11 -13z m1668 0 c0 -8 -4 -15 -10 -15
-5 0 -10 7 -10 15 0 8 5 15 10 15 6 0 10 -7 10 -15z m-1650 -40 c0 -8 -4 -15
-10 -15 -5 0 -10 7 -10 15 0 8 5 15 10 15 6 0 10 -7 10 -15z m1630 0 c0 -8 -4
-15 -10 -15 -5 0 -10 7 -10 15 0 8 5 15 10 15 6 0 10 -7 10 -15z m-1600 -45
c0 -5 -7 -10 -15 -10 -8 0 -15 5 -15 10 0 6 7 10 15 10 8 0 15 -4 15 -10z
m1580 0 c0 -5 -4 -10 -10 -10 -5 0 -10 5 -10 10 0 6 5 10 10 10 6 0 10 -4 10
-10z m-1560 -40 c0 -5 -4 -10 -10 -10 -5 0 -10 5 -10 10 0 6 5 10 10 10 6 0
10 -4 10 -10z m1530 0 c0 -5 -4 -10 -10 -10 -5 0 -10 5 -10 10 0 6 5 10 10 10
6 0 10 -4 10 -10z m-1500 -40 c0 -5 -4 -10 -10 -10 -5 0 -10 5 -10 10 0 6 5
10 10 10 6 0 10 -4 10 -10z m1480 0 c0 -5 -7 -10 -15 -10 -8 0 -15 5 -15 10 0
6 7 10 15 10 8 0 15 -4 15 -10z m-33 -46 c-9 -9 -28 6 -21 18 4 6 10 6 17 -1
6 -6 8 -13 4 -17z m-1417 6 c0 -5 -7 -10 -15 -10 -8 0 -15 5 -15 10 0 6 7 10
15 10 8 0 15 -4 15 -10z m30 -35 c0 -8 -4 -15 -9 -15 -13 0 -22 16 -14 24 11
11 23 6 23 -9z m1354 -6 c-3 -5 -10 -7 -15 -3 -5 3 -7 10 -3 15 3 5 10 7 15 3
5 -3 7 -10 3 -15z m-1324 -29 c0 -5 -4 -10 -10 -10 -5 0 -10 5 -10 10 0 6 5
10 10 10 6 0 10 -4 10 -10z m1300 0 c0 -5 -7 -10 -15 -10 -8 0 -15 5 -15 10 0
6 7 10 15 10 8 0 15 -4 15 -10z m-1269 -33 c-1 -12 -15 -9 -19 4 -3 6 1 10 8
8 6 -3 11 -8 11 -12z m1229 3 c0 -5 -4 -10 -10 -10 -5 0 -10 5 -10 10 0 6 5
10 10 10 6 0 10 -4 10 -10z m-1190 -35 c0 -8 -4 -15 -10 -15 -5 0 -10 7 -10
15 0 8 5 15 10 15 6 0 10 -7 10 -15z m1150 -1 c0 -8 -5 -12 -10 -9 -6 4 -8 11
-5 16 9 14 15 11 15 -7z m-1115 -23 c3 -5 1 -12 -5 -16 -5 -3 -10 1 -10 9 0
18 6 21 15 7z m1079 -12 c-3 -5 -10 -7 -15 -3 -5 3 -7 10 -3 15 3 5 10 7 15 3
5 -3 7 -10 3 -15z m-1034 -19 c0 -5 -4 -10 -10 -10 -5 0 -10 5 -10 10 0 6 5
10 10 10 6 0 10 -4 10 -10z m1000 0 c0 -5 -7 -10 -15 -10 -8 0 -15 5 -15 10 0
6 7 10 15 10 8 0 15 -4 15 -10z m-960 -30 c0 -5 -4 -10 -10 -10 -5 0 -10 5
-10 10 0 6 5 10 10 10 6 0 10 -4 10 -10z m920 6 c0 -11 -19 -15 -25 -6 -3 5 1
10 9 10 9 0 16 -2 16 -4z m-880 -26 c0 -5 -4 -10 -10 -10 -5 0 -10 5 -10 10 0
6 5 10 10 10 6 0 10 -4 10 -10z m830 0 c0 -5 -4 -10 -10 -10 -5 0 -10 5 -10
10 0 6 5 10 10 10 6 0 10 -4 10 -10z m-790 -20 c0 -5 -4 -10 -10 -10 -5 0 -10
5 -10 10 0 6 5 10 10 10 6 0 10 -4 10 -10z m750 0 c0 -5 -4 -10 -10 -10 -5 0
-10 5 -10 10 0 6 5 10 10 10 6 0 10 -4 10 -10z m-700 -20 c0 -5 -4 -10 -10
-10 -5 0 -10 5 -10 10 0 6 5 10 10 10 6 0 10 -4 10 -10z m660 6 c0 -3 -4 -8
-10 -11 -5 -3 -10 -1 -10 4 0 6 5 11 10 11 6 0 10 -2 10 -4z m-620 -22 c0 -8
-5 -12 -10 -9 -6 4 -8 11 -5 16 9 14 15 11 15 -7z m570 1 c0 -8 -4 -15 -10
-15 -5 0 -10 7 -10 15 0 8 5 15 10 15 6 0 10 -7 10 -15z m-520 -15 c0 -5 -4
-10 -10 -10 -5 0 -10 5 -10 10 0 6 5 10 10 10 6 0 10 -4 10 -10z m475 0 c-3
-5 -10 -10 -16 -10 -5 0 -9 5 -9 10 0 6 7 10 16 10 8 0 12 -4 9 -10z m-425
-10 c0 -5 -7 -10 -15 -10 -8 0 -15 5 -15 10 0 6 7 10 15 10 8 0 15 -4 15 -10z
m380 0 c0 -5 -4 -10 -10 -10 -5 0 -10 5 -10 10 0 6 5 10 10 10 6 0 10 -4 10
-10z m-340 -10 c0 -5 -4 -10 -10 -10 -5 0 -10 5 -10 10 0 6 5 10 10 10 6 0 10
-4 10 -10z m240 -6 c0 -8 -5 -12 -10 -9 -6 4 -8 11 -5 16 9 14 15 11 15 -7z
m50 6 c0 -5 -4 -10 -10 -10 -5 0 -10 5 -10 10 0 6 5 10 10 10 6 0 10 -4 10
-10z m-240 -10 c0 -5 -4 -10 -10 -10 -5 0 -10 5 -10 10 0 6 5 10 10 10 6 0 10
-4 10 -10z m50 0 c0 -5 -4 -10 -10 -10 -5 0 -10 5 -10 10 0 6 5 10 10 10 6 0
10 -4 10 -10z m50 0 c0 -5 -7 -10 -16 -10 -8 0 -12 5 -9 10 3 6 10 10 16 10 5
0 9 -4 9 -10z m50 0 c0 -5 -7 -10 -15 -10 -8 0 -15 5 -15 10 0 6 7 10 15 10 8
0 15 -4 15 -10z"/>
<path d="M5623 5210 c-62 -25 -69 -174 -10 -215 30 -21 62 -19 93 8 53 46 39
184 -21 207 -31 12 -33 12 -62 0z"/>
<path d="M6620 5132 c-42 -13 -57 -104 -22 -135 43 -39 92 -7 92 59 0 56 -30
89 -70 76z"/>
<path d="M3206 2279 c-49 -39 -29 -73 58 -99 28 -9 52 -22 53 -30 9 -47 -74
-63 -109 -21 -21 27 -33 23 -24 -7 13 -40 103 -53 143 -21 17 15 17 63 -1 78
-7 6 -37 18 -65 27 -55 16 -69 44 -32 64 29 15 49 12 72 -11 11 -11 25 -19 32
-16 7 2 1 14 -15 30 -33 33 -75 35 -112 6z"/>
<path d="M3911 2243 c1 -32 4 -71 8 -88 6 -28 7 -27 14 19 12 82 9 126 -8 126
-12 0 -15 -13 -14 -57z"/>
<path d="M4092 2284 c-17 -12 -22 -24 -20 -46 3 -34 12 -41 78 -60 34 -10 46
-18 48 -35 3 -17 -4 -26 -24 -33 -33 -13 -64 -5 -86 23 -19 25 -38 15 -22 -11
32 -50 119 -54 150 -6 26 39 8 66 -56 84 -63 18 -85 44 -56 66 27 19 52 18 76
-6 29 -29 53 -25 32 6 -22 34 -84 43 -120 18z"/>
<path d="M4930 2190 c0 -67 4 -110 10 -110 6 0 10 24 10 53 0 42 5 58 21 73
34 30 53 9 57 -65 2 -33 7 -61 12 -61 15 0 12 134 -2 148 -15 15 -54 16 -63 2
-13 -22 -25 -8 -25 30 0 22 -4 40 -10 40 -6 0 -10 -43 -10 -110z"/>
<path d="M5100 2285 c0 -8 5 -15 10 -15 6 0 10 7 10 15 0 8 -4 15 -10 15 -5 0
-10 -7 -10 -15z"/>
<path d="M4850 2261 c0 -11 -6 -22 -12 -24 -10 -4 -10 -7 -1 -14 7 -5 13 -38
15 -73 3 -59 5 -65 26 -68 25 -4 30 13 7 22 -11 4 -15 21 -15 61 0 42 3 55 15
55 8 0 15 5 15 10 0 6 -7 10 -15 10 -8 0 -15 9 -15 20 0 11 -4 20 -10 20 -5 0
-10 -9 -10 -19z"/>
<path d="M6130 2261 c0 -11 -6 -22 -12 -24 -10 -4 -10 -7 -1 -14 6 -5 13 -35
15 -67 2 -42 8 -62 20 -70 9 -5 21 -6 25 -2 4 5 2 11 -4 13 -9 3 -13 25 -13
63 0 37 5 60 13 64 10 5 10 7 0 12 -7 3 -13 14 -13 25 0 10 -7 19 -15 19 -8 0
-15 -9 -15 -19z"/>
<path d="M3395 2215 c-16 -15 -25 -36 -25 -55 0 -19 9 -40 25 -55 49 -50 115
-19 115 55 0 74 -66 105 -115 55z m79 -17 c21 -30 20 -51 -3 -79 -16 -21 -22
-22 -45 -11 -22 10 -26 18 -26 51 0 58 45 81 74 39z"/>
<path d="M3550 2160 c0 -94 17 -108 22 -17 4 69 0 97 -13 97 -5 0 -9 -36 -9
-80z"/>
<path d="M3590 2230 c-8 -5 -12 -12 -9 -15 8 -8 39 5 39 16 0 11 -11 11 -30
-1z"/>
<path d="M3650 2160 c0 -94 17 -108 22 -17 4 69 0 97 -13 97 -5 0 -9 -36 -9
-80z"/>
<path d="M3690 2230 c-8 -5 -12 -12 -9 -15 8 -8 39 5 39 16 0 11 -11 11 -30
-1z"/>
<path d="M3756 2168 c30 -88 31 -118 4 -125 -25 -7 -26 -23 -1 -23 26 0 33 12
73 123 25 68 32 97 23 97 -8 0 -21 -24 -30 -52 -10 -29 -21 -57 -25 -61 -3 -4
-15 20 -25 53 -10 33 -24 60 -31 60 -9 0 -6 -19 12 -72z"/>
<path d="M4280 2222 c-17 -14 -23 -29 -23 -62 0 -33 6 -48 23 -62 51 -41 110
-8 110 62 0 70 -59 103 -110 62z m72 -19 c22 -20 23 -61 1 -85 -20 -22 -37
-23 -57 -2 -30 30 -11 104 26 104 6 0 20 -7 30 -17z"/>
<path d="M4430 2160 c0 -47 4 -80 10 -80 6 0 10 24 10 54 0 58 18 90 49 84 12
-3 17 -18 19 -71 3 -80 22 -91 22 -13 0 58 18 90 49 84 12 -3 17 -18 19 -71 4
-91 22 -85 22 8 0 70 -1 75 -24 81 -13 3 -34 0 -46 -6 -16 -9 -25 -9 -33 -1
-15 15 -50 14 -65 -1 -9 -9 -12 -9 -12 0 0 7 -4 12 -10 12 -6 0 -10 -33 -10
-80z"/>
<path d="M4695 2215 c-16 -15 -25 -36 -25 -55 0 -35 38 -80 68 -80 24 0 70 35
60 46 -5 4 -17 -1 -27 -10 -23 -21 -56 -14 -71 15 -10 18 -7 19 50 19 54 0 60
2 60 20 0 27 -43 70 -70 70 -11 0 -32 -11 -45 -25z m73 -7 c24 -24 13 -38 -28
-38 -43 0 -55 20 -22 39 23 14 36 13 50 -1z"/>
<path d="M5100 2160 c0 -47 4 -80 10 -80 6 0 10 33 10 80 0 47 -4 80 -10 80
-6 0 -10 -33 -10 -80z"/>
<path d="M5160 2160 c0 -63 3 -80 15 -80 10 0 15 16 17 61 3 65 19 88 52 76
12 -5 16 -20 16 -72 0 -51 3 -65 15 -65 22 0 21 122 -1 144 -18 19 -55 21 -72
4 -9 -9 -12 -9 -12 0 0 7 -7 12 -15 12 -12 0 -15 -16 -15 -80z"/>
<path d="M5341 2214 c-28 -36 -27 -85 2 -112 26 -25 47 -28 65 -10 18 18 27 1
14 -27 -13 -28 -59 -35 -68 -10 -8 19 -24 19 -24 0 0 -35 69 -46 100 -15 17
17 20 33 20 110 0 53 -4 90 -10 90 -5 0 -10 -5 -10 -10 0 -7 -6 -7 -19 0 -31
16 -48 12 -70 -16z m73 -16 c21 -30 20 -51 -3 -79 -16 -20 -23 -22 -38 -13
-30 18 -39 59 -19 88 20 32 40 33 60 4z"/>
<path d="M5564 2224 c3 -8 14 -45 23 -80 21 -80 41 -82 58 -6 7 29 14 55 17
57 3 3 10 -20 17 -50 21 -93 39 -87 69 23 16 57 18 72 7 72 -8 0 -18 -22 -26
-55 -7 -30 -15 -55 -19 -55 -4 0 -12 25 -19 55 -15 65 -35 72 -50 18 -6 -21
-11 -43 -11 -50 0 -6 -4 -14 -9 -18 -5 -3 -15 20 -22 50 -8 36 -17 55 -27 55
-9 0 -12 -6 -8 -16z"/>
<path d="M5815 2215 c-48 -47 -22 -135 39 -135 27 0 75 34 64 46 -5 4 -16 0
-26 -9 -10 -10 -25 -17 -34 -17 -15 0 -48 30 -48 43 0 4 27 7 61 7 l61 0 -6
28 c-8 32 -40 62 -68 62 -10 0 -30 -11 -43 -25z m66 -5 c36 -20 23 -40 -27
-40 -46 0 -48 3 -21 38 12 15 22 15 48 2z"/>
<path d="M5960 2160 c0 -63 3 -80 15 -80 10 0 15 16 17 61 3 65 19 88 52 76
12 -5 16 -20 16 -72 0 -51 3 -65 15 -65 22 0 21 122 -1 144 -18 19 -55 21 -72
4 -9 -9 -12 -9 -12 0 0 7 -7 12 -15 12 -12 0 -15 -16 -15 -80z"/>
<path d="M6282 2229 c3 -8 13 -44 23 -81 25 -93 44 -92 61 5 3 20 10 37 14 37
4 0 12 -25 19 -55 17 -76 35 -72 61 14 23 77 24 91 10 91 -5 0 -14 -19 -20
-42 -21 -84 -25 -86 -40 -20 -8 40 -18 62 -27 62 -15 0 -15 -1 -35 -75 l-14
-50 -15 59 c-8 33 -21 62 -28 64 -9 3 -12 -1 -9 -9z"/>
<path d="M6510 2160 c0 -64 3 -80 15 -80 12 0 15 13 15 60 0 55 2 62 25 72 14
6 25 15 25 20 0 12 -24 10 -39 -4 -11 -10 -14 -10 -18 0 -13 34 -23 4 -23 -68z"/>
<path d="M6625 2215 c-16 -15 -25 -36 -25 -55 0 -19 9 -40 25 -55 49 -50 115
-19 115 55 0 74 -66 105 -115 55z m79 -17 c21 -30 20 -51 -3 -79 -16 -21 -22
-22 -45 -11 -22 10 -26 18 -26 51 0 58 45 81 74 39z"/>
<path d="M6780 2160 c0 -47 4 -80 10 -80 6 0 10 24 10 53 0 42 5 58 21 73 34
30 53 9 57 -65 2 -33 7 -61 13 -61 6 0 9 29 7 72 -3 69 -4 73 -31 82 -20 7
-34 7 -47 -2 -12 -7 -20 -8 -20 -2 0 5 -4 10 -10 10 -6 0 -10 -33 -10 -80z"/>
<path d="M6960 2220 c-13 -13 -20 -33 -20 -60 0 -61 53 -103 88 -68 9 9 12 8
12 -8 0 -40 -45 -59 -70 -29 -18 22 -33 19 -20 -4 24 -45 92 -38 109 10 14 40
15 179 1 179 -5 0 -10 -5 -10 -10 0 -7 -6 -7 -19 0 -29 15 -49 12 -71 -10z
m68 -12 c7 -7 12 -28 12 -48 0 -55 -32 -77 -64 -44 -31 30 -11 104 28 104 6 0
17 -5 24 -12z"/>
<path d="M3910 2095 c0 -8 7 -15 15 -15 8 0 15 7 15 15 0 8 -7 15 -15 15 -8 0
-15 -7 -15 -15z"/>
<path d="M2550 1745 c0 -43 4 -75 10 -75 6 0 10 32 10 75 0 43 -4 75 -10 75
-6 0 -10 -32 -10 -75z"/>
<path d="M3800 1745 c0 -43 3 -76 6 -72 7 7 6 138 -1 145 -3 3 -5 -30 -5 -73z"/>
<path d="M5461 1750 l-1 -76 36 1 c38 2 54 17 54 52 0 31 -27 54 -55 47 -20
-5 -24 -2 -28 23 -2 15 -5 -6 -6 -47z m67 8 c28 -28 3 -85 -32 -72 -23 9 -25
62 -3 76 16 10 21 10 35 -4z"/>
<path d="M5583 1745 c0 -44 2 -61 4 -37 2 23 2 59 0 80 -2 20 -4 1 -4 -43z"/>
<path d="M6022 1748 c-2 -67 0 -77 14 -71 11 4 12 9 5 16 -15 15 -14 50 2 66
8 10 8 12 0 7 -8 -4 -13 5 -16 26 -2 18 -5 -2 -5 -44z"/>
<path d="M7130 1789 c0 -26 -2 -29 -14 -20 -25 21 -56 -4 -56 -44 0 -40 31
-65 55 -45 10 8 14 8 18 -2 3 -7 6 22 6 65 1 42 -1 77 -4 77 -3 0 -5 -14 -5
-31z m-12 -31 c30 -30 -1 -94 -33 -68 -25 20 -13 80 15 80 3 0 11 -5 18 -12z"/>
<path d="M7520 1789 c0 -26 -2 -29 -14 -20 -25 21 -56 -4 -56 -44 0 -40 31
-65 55 -45 10 8 14 8 18 -2 3 -7 6 22 6 65 1 42 -1 77 -4 77 -3 0 -5 -14 -5
-31z m-12 -31 c30 -30 -1 -94 -33 -68 -25 20 -13 80 15 80 3 0 11 -5 18 -12z"/>
<path d="M7613 1809 c21 -13 22 -37 1 -60 -9 -10 -14 -23 -12 -29 2 -6 14 6
26 28 20 37 21 42 6 56 -8 9 -21 16 -27 16 -7 0 -4 -5 6 -11z"/>
<path d="M4599 1795 c-8 -39 6 -118 21 -123 12 -4 13 -2 3 9 -7 7 -13 30 -13
51 0 24 5 38 13 38 8 0 9 3 1 8 -6 4 -13 14 -16 22 -4 11 -6 10 -9 -5z"/>
<path d="M5299 1795 c-8 -39 6 -118 21 -123 12 -4 13 -2 3 9 -7 7 -13 30 -13
51 0 24 5 38 13 38 8 0 9 3 1 8 -6 4 -13 14 -16 22 -4 11 -6 10 -9 -5z"/>
<path d="M7009 1795 c-8 -39 6 -118 21 -123 12 -4 13 -2 3 9 -7 7 -13 30 -13
51 0 24 5 38 13 38 8 0 9 3 1 8 -6 4 -13 14 -16 22 -4 11 -6 10 -9 -5z"/>
<path d="M7289 1795 c-7 -35 6 -118 19 -121 7 -1 8 0 2 3 -15 7 -13 93 3 93 8
0 9 3 1 8 -6 4 -13 14 -16 22 -4 11 -6 10 -9 -5z"/>
<path d="M7575 1799 c-4 -6 -5 -12 -2 -15 2 -3 7 2 10 11 7 17 1 20 -8 4z"/>
<path d="M3423 1785 c-8 -9 -9 -16 -3 -20 6 -3 10 -26 10 -51 0 -24 3 -44 8
-44 7 0 7 118 0 125 -1 2 -9 -3 -15 -10z"/>
<path d="M2613 1773 c-24 -9 -14 -41 17 -52 17 -5 30 -15 30 -21 0 -17 -29
-23 -45 -10 -9 8 -15 8 -15 2 0 -14 33 -24 54 -16 25 10 16 47 -13 54 -14 3
-26 11 -29 18 -6 18 26 26 46 11 15 -13 16 -12 3 4 -14 17 -25 20 -48 10z"/>
<path d="M2754 1765 c3 -11 10 -40 17 -64 12 -40 11 -45 -7 -58 -18 -14 -18
-15 0 -11 14 2 26 23 43 72 12 38 21 71 19 74 -3 2 -10 -14 -17 -37 -12 -39
-28 -55 -29 -28 -1 6 -7 26 -15 42 -8 17 -13 21 -11 10z"/>
<path d="M2972 1733 c-1 -29 1 -54 6 -55 4 0 19 -2 35 -3 27 -2 27 -1 25 54
l-2 56 -3 -47 c-2 -27 -8 -49 -14 -49 -31 -5 -34 -1 -40 46 l-6 50 -1 -52z"/>
<path d="M3082 1725 c1 -44 2 -49 5 -20 3 22 12 49 21 60 15 18 15 18 0 7 -13
-10 -17 -10 -21 0 -3 7 -5 -14 -5 -47z"/>
<path d="M3203 1725 c0 -46 1 -50 4 -18 2 23 11 47 19 53 22 19 42 -4 47 -53
l4 -42 1 46 c2 55 -18 80 -48 61 -14 -9 -20 -8 -23 1 -3 7 -5 -15 -4 -48z"/>
<path d="M3328 1769 c-26 -15 -24 -75 2 -89 19 -10 60 1 60 16 0 2 -9 0 -21
-6 -15 -9 -24 -8 -35 1 -23 19 -16 29 21 29 28 0 35 4 35 20 0 10 -9 24 -19
30 -23 12 -22 12 -43 -1z m36 -5 c28 -11 18 -34 -14 -34 -32 0 -37 9 -18 28
14 14 12 14 32 6z"/>
<path d="M3476 1750 c4 -19 11 -46 16 -60 7 -20 11 -22 18 -10 6 8 9 24 9 35
l0 20 -9 -20 c-6 -16 -9 -17 -13 -5 -28 80 -27 78 -21 40z"/>
<path d="M3527 1774 c-10 -11 -9 -36 2 -29 6 3 13 -10 17 -30 3 -19 10 -38 15
-40 9 -6 42 95 34 103 -5 5 -10 -7 -20 -53 -8 -33 -7 -34 -33 36 -4 11 -11 17
-15 13z"/>
<path d="M3638 1769 c-26 -15 -24 -75 2 -89 14 -8 26 -8 40 0 27 15 28 75 1
90 -23 12 -22 12 -43 -1z m40 -11 c28 -28 3 -85 -32 -72 -27 10 -15 84 14 84
3 0 11 -5 18 -12z"/>
<path d="M3731 1725 l1 -60 9 44 c5 26 5 50 -1 60 -7 11 -9 -2 -9 -44z"/>
<path d="M3838 1758 c-14 -20 -13 -26 6 -55 28 -44 41 -42 14 2 -20 34 -20 37
-3 55 10 11 13 20 8 20 -6 0 -17 -10 -25 -22z"/>
<path d="M3968 1769 c-26 -15 -24 -75 2 -89 22 -12 60 2 60 22 0 6 -9 3 -20
-7 -16 -15 -22 -15 -35 -5 -19 16 -19 54 0 70 12 10 19 10 27 2 7 -7 17 -12
23 -12 5 0 1 7 -9 15 -23 17 -25 18 -48 4z"/>
<path d="M4066 1764 c-23 -22 -20 -71 4 -84 50 -27 89 52 42 88 -21 16 -27 15
-46 -4z m41 -2 c22 -14 20 -67 -3 -76 -35 -13 -60 44 -32 72 14 14 19 14 35 4z"/>
<path d="M4173 1725 c0 -33 2 -45 4 -27 2 18 2 45 0 60 -2 15 -4 0 -4 -33z"/>
<path d="M4196 1771 c-3 -5 2 -8 12 -7 13 1 18 -10 23 -49 l6 -50 1 51 c2 39
-2 53 -14 58 -20 8 -22 8 -28 -3z"/>
<path d="M4283 1725 c0 -33 2 -45 4 -27 2 18 2 45 0 60 -2 15 -4 0 -4 -33z"/>
<path d="M4306 1771 c-3 -5 2 -8 12 -7 13 1 18 -10 23 -49 l6 -50 1 51 c2 39
-2 53 -14 58 -20 8 -22 8 -28 -3z"/>
<path d="M4408 1768 c-8 -7 -18 -21 -21 -30 -5 -15 0 -18 38 -18 38 0 45 3 45
20 0 10 -9 24 -19 30 -24 13 -24 13 -43 -2z m40 -10 c19 -19 14 -28 -18 -28
-41 0 -40 33 1 39 3 1 10 -4 17 -11z"/>
<path d="M4653 1725 c0 -33 2 -45 4 -27 2 18 2 45 0 60 -2 15 -4 0 -4 -33z"/>
<path d="M4710 1760 c-24 -24 -25 -40 -4 -66 14 -18 15 -18 4 4 -20 42 14 88
46 61 21 -17 17 -56 -8 -73 -12 -9 -17 -16 -11 -16 19 0 43 30 43 55 0 24 -23
55 -41 55 -5 0 -18 -9 -29 -20z"/>
<path d="M4813 1725 c0 -46 1 -50 4 -18 2 23 11 47 19 53 22 19 42 -4 47 -53
l4 -42 1 46 c2 55 -18 80 -48 61 -14 -9 -20 -8 -23 1 -3 7 -5 -15 -4 -48z"/>
<path d="M4982 1733 c-1 -29 1 -54 6 -55 4 0 19 -2 35 -3 27 -2 27 -1 25 54
l-2 56 -3 -47 c-2 -27 -8 -49 -14 -49 -31 -5 -34 -1 -40 46 l-6 50 -1 -52z"/>
<path d="M5093 1725 c0 -46 1 -50 4 -18 2 23 11 47 19 53 22 19 42 -4 47 -53
l4 -42 1 46 c2 55 -18 80 -48 61 -14 -9 -20 -8 -23 1 -3 7 -5 -15 -4 -48z"/>
<path d="M5213 1773 c-25 -9 -14 -41 18 -52 22 -8 29 -15 25 -26 -3 -9 -2 -13
4 -10 19 12 10 33 -20 44 -16 5 -30 14 -30 20 0 16 21 24 33 12 6 -6 16 -11
22 -11 5 0 1 7 -9 15 -21 16 -24 16 -43 8z"/>
<path d="M5373 1773 c-7 -2 -13 -9 -13 -15 0 -7 5 -6 14 1 33 28 61 -31 33
-69 -6 -8 -7 -12 -3 -8 5 4 14 4 20 -1 8 -7 10 2 8 32 -6 59 -22 76 -59 60z"/>
<path d="M5638 1769 c-26 -15 -24 -75 2 -89 19 -10 60 1 60 16 0 2 -9 0 -21
-6 -15 -9 -24 -8 -35 1 -23 19 -16 29 21 29 28 0 35 4 35 20 0 10 -9 24 -19
30 -23 12 -22 12 -43 -1z m36 -5 c28 -11 18 -34 -14 -34 -32 0 -37 9 -18 28
14 14 12 14 32 6z"/>
<path d="M5902 1725 c1 -44 2 -49 5 -20 3 22 12 49 21 60 15 18 15 18 0 7 -13
-10 -17 -10 -21 0 -3 7 -5 -14 -5 -47z"/>
<path d="M6074 1766 c10 -8 19 -27 19 -41 0 -14 -9 -33 -19 -41 -18 -14 -18
-15 2 -5 38 18 36 81 -3 95 -17 6 -17 5 1 -8z"/>
<path d="M6132 1725 c0 -54 1 -56 7 -20 4 22 11 46 15 54 6 9 5 12 -2 7 -5 -3
-13 0 -15 6 -3 7 -5 -14 -5 -47z"/>
<path d="M6210 1760 c-24 -24 -25 -40 -4 -66 14 -18 15 -18 4 4 -20 42 14 88
46 61 21 -17 17 -56 -8 -73 -12 -9 -17 -16 -11 -16 19 0 43 30 43 55 0 24 -23
55 -41 55 -5 0 -18 -9 -29 -20z"/>
<path d="M6306 1750 c4 -19 11 -46 16 -60 7 -20 11 -22 18 -10 6 8 9 24 9 35
l0 20 -9 -20 c-6 -16 -9 -17 -13 -5 -28 80 -27 78 -21 40z"/>
<path d="M6357 1774 c-10 -11 -9 -36 2 -29 6 3 13 -10 17 -30 3 -19 10 -38 15
-40 9 -6 42 95 34 103 -5 5 -10 -7 -20 -53 -8 -33 -7 -34 -33 36 -4 11 -11 17
-15 13z"/>
<path d="M6462 1768 c-20 -20 -14 -35 18 -47 17 -5 30 -15 30 -21 0 -17 -29
-23 -45 -10 -9 8 -15 8 -15 2 0 -14 33 -24 53 -16 36 13 25 47 -17 55 -11 2
-21 9 -23 15 -6 17 27 26 43 13 9 -7 14 -8 14 -1 0 9 -22 22 -39 22 -4 0 -12
-5 -19 -12z"/>
<path d="M6603 1766 c26 -20 21 -36 -13 -36 -32 0 -37 9 -18 28 8 8 8 12 1 12
-12 0 -23 -23 -23 -50 0 -21 25 -50 43 -50 6 0 1 7 -11 16 -33 23 -27 34 18
34 22 0 40 3 40 6 0 15 -21 42 -37 48 -17 6 -17 5 0 -8z"/>
<path d="M6661 1725 l1 -60 9 44 c5 26 5 50 -1 60 -7 11 -9 -2 -9 -44z"/>
<path d="M6902 1733 c-1 -29 1 -54 6 -55 4 0 19 -2 35 -3 27 -2 27 -1 25 54
l-2 56 -3 -47 c-2 -27 -8 -49 -14 -49 -31 -5 -34 -1 -40 46 l-6 50 -1 -52z"/>
<path d="M7193 1773 c-7 -2 -13 -9 -13 -15 0 -6 6 -6 15 2 24 20 42 5 43 -36
1 -21 5 -41 9 -45 5 -5 6 13 4 39 -4 56 -20 71 -58 55z"/>
<path d="M7358 1769 c-26 -15 -24 -75 2 -89 19 -10 60 1 60 16 0 2 -9 0 -21
-6 -15 -9 -24 -8 -35 1 -23 19 -16 29 21 29 28 0 35 4 35 20 0 10 -9 24 -19
30 -23 12 -22 12 -43 -1z m36 -5 c28 -11 18 -34 -14 -34 -32 0 -37 9 -18 28
14 14 12 14 32 6z"/>
<path d="M2854 1746 c-7 -30 3 -66 19 -66 8 0 8 3 -1 12 -7 7 -12 21 -12 33 0
12 5 26 12 33 9 9 9 12 0 12 -6 0 -14 -11 -18 -24z"/>
<path d="M2919 1751 c10 -18 10 -29 1 -49 -10 -22 -9 -24 4 -12 21 16 20 54
-1 71 -15 13 -15 12 -4 -10z"/>
<path d="M4500 1751 c-14 -27 -13 -46 6 -61 13 -12 14 -10 4 12 -9 19 -9 31
-1 47 7 11 9 21 7 21 -3 0 -10 -9 -16 -19z"/>
<path d="M5784 1746 c-7 -30 3 -66 19 -66 8 0 8 3 -1 12 -7 7 -12 21 -12 33 0
12 5 26 12 33 9 9 9 12 0 12 -6 0 -14 -11 -18 -24z"/>
<path d="M5849 1751 c10 -18 10 -29 1 -49 -10 -22 -9 -24 4 -12 21 16 20 54
-1 71 -15 13 -15 12 -4 -10z"/>
<path d="M6784 1746 c-7 -30 3 -66 19 -66 8 0 8 3 -1 12 -7 7 -12 21 -12 33 0
12 5 26 12 33 9 9 9 12 0 12 -6 0 -14 -11 -18 -24z"/>
<path d="M6849 1751 c10 -18 10 -29 1 -49 -10 -22 -9 -24 4 -12 21 16 20 54
-1 71 -15 13 -15 12 -4 -10z"/>
<path d="M5363 1723 c-18 -7 -16 -40 3 -47 24 -9 31 -7 12 5 -24 14 -22 28 5
39 12 5 15 9 7 9 -8 -1 -21 -3 -27 -6z"/>
<path d="M7180 1715 c-10 -12 -10 -18 0 -30 7 -8 18 -15 24 -15 6 0 3 5 -6 11
-24 14 -22 28 5 39 15 6 17 9 6 9 -9 1 -22 -6 -29 -14z"/>
<path d="M4390 1701 c0 -20 38 -33 61 -21 11 7 18 14 15 18 -4 3 -12 0 -18 -6
-16 -16 -23 -15 -42 4 -9 8 -16 11 -16 5z"/>
<path d="M4548 1688 c-10 -10 -14 -18 -9 -18 10 0 36 29 30 34 -2 1 -12 -6
-21 -16z"/>
<path d="M5204 1685 c11 -8 24 -15 30 -15 5 0 1 7 -10 15 -10 8 -23 14 -29 14
-5 0 -1 -6 9 -14z"/>
<path d="M4793 1165 c0 -33 2 -45 4 -27 2 18 2 45 0 60 -2 15 -4 0 -4 -33z"/>
<path d="M5140 1202 c0 -13 -7 -18 -22 -18 -20 1 -23 -4 -23 -34 0 -31 3 -35
28 -36 26 -1 27 1 27 52 0 30 -2 54 -5 54 -3 0 -5 -8 -5 -18z m-5 -52 c0 -16
-6 -26 -17 -28 -14 -3 -18 3 -18 28 0 25 4 31 18 28 11 -2 17 -12 17 -28z"/>
<path d="M5213 1165 c0 -33 2 -46 4 -30 6 39 21 55 33 35 8 -13 10 -12 10 4 0
13 -5 17 -19 13 -15 -3 -21 1 -24 17 -2 11 -4 -6 -4 -39z"/>
<path d="M5363 1165 c0 -33 2 -45 4 -27 2 18 2 45 0 60 -2 15 -4 0 -4 -33z"/>
<path d="M4861 1145 c2 -34 3 -35 6 -10 6 39 21 55 33 35 8 -13 10 -12 10 2 0
13 -7 17 -25 16 -22 -2 -25 -6 -24 -43z"/>
<path d="M4942 1178 c-16 -16 -15 -43 3 -58 17 -14 45 -7 45 12 0 10 -3 9 -9
-1 -5 -8 -16 -11 -25 -8 -25 10 -19 27 10 27 19 0 25 5 22 17 -4 22 -29 28
-46 11z m38 -8 c0 -5 -9 -10 -21 -10 -11 0 -17 5 -14 10 3 6 13 10 21 10 8 0
14 -4 14 -10z"/>
<path d="M5022 1178 c-16 -16 -15 -43 3 -58 16 -14 45 -7 45 11 0 8 -4 8 -15
-1 -8 -6 -19 -9 -25 -5 -19 11 -10 25 16 25 19 0 25 5 22 17 -4 22 -29 28 -46
11z m33 -8 c3 -5 -3 -10 -15 -10 -12 0 -18 5 -15 10 3 6 10 10 15 10 5 0 12
-4 15 -10z"/>
<path d="M5292 1178 c-16 -16 -15 -43 3 -58 17 -14 45 -7 45 12 0 10 -3 9 -9
-1 -5 -8 -16 -11 -25 -8 -25 10 -19 27 10 27 19 0 25 5 22 17 -4 22 -29 28
-46 11z m38 -8 c0 -5 -9 -10 -21 -10 -11 0 -17 5 -14 10 3 6 13 10 21 10 8 0
14 -4 14 -10z"/>
<path d="M5391 1131 c1 -32 4 -48 7 -36 4 11 16 20 27 20 16 0 20 7 20 35 0
31 -3 35 -27 36 -27 1 -28 0 -27 -55z m44 19 c0 -13 -6 -25 -12 -27 -16 -6
-27 21 -19 43 9 23 31 11 31 -16z"/>
<path d="M28 993 c7 -3 16 -2 19 1 4 3 -2 6 -13 5 -11 0 -14 -3 -6 -6z"/>
<path d="M222 955 c0 -16 2 -22 5 -12 2 9 2 23 0 30 -3 6 -5 -1 -5 -18z"/>
</g>
</svg>
